<?xml version="1.0" encoding="UTF-8"?><svg id="Layer_1" xmlns="http://www.w3.org/2000/svg" viewBox="0 0 512 512"><path d="M256,508c-67.31,0-130.59-26.21-178.19-73.81C30.21,386.59,4,323.31,4,256S30.21,125.41,77.81,77.81,188.69,4,256,4s130.59,26.21,178.19,73.81c47.6,47.6,73.81,110.88,73.81,178.19s-26.21,130.59-73.81,178.19c-47.6,47.6-110.88,73.81-178.19,73.81Z" style="fill:#ff931e; stroke-width:0px;"/><path d="M256,8c33.48,0,65.96,6.56,96.53,19.49,29.53,12.49,56.05,30.37,78.83,53.15,22.78,22.78,40.66,49.3,53.15,78.83,12.93,30.57,19.49,63.05,19.49,96.53s-6.56,65.96-19.49,96.53c-12.49,29.53-30.37,56.05-53.15,78.83-22.78,22.78-49.3,40.66-78.83,53.15-30.57,12.93-63.05,19.49-96.53,19.49s-65.96-6.56-96.53-19.49c-29.53-12.49-56.05-30.37-78.83-53.15-22.78-22.78-40.66-49.3-53.15-78.83-12.93-30.57-19.49-63.05-19.49-96.53s6.56-65.96,19.49-96.53c12.49-29.53,30.37-56.05,53.15-78.83,22.78-22.78,49.3-40.66,78.83-53.15,30.57-12.93,63.05-19.49,96.53-19.49M256,0C114.62,0,0,114.62,0,256s114.62,256,256,256,256-114.62,256-256S397.38,0,256,0h0Z" style="fill:#fff; stroke-width:0px;"/><path d="M211.26,181.3c-1.87-1.86-5.27-4.4-10.2-7.6-4.94-3.2-10.94-6.33-18-9.4-7.07-3.06-14.74-5.66-23-7.8-8.27-2.13-16.67-3.2-25.2-3.2-15.2,0-26.54,2.8-34,8.4-7.47,5.6-11.2,13.47-11.2,23.6,0,5.87,1.4,10.74,4.2,14.6,2.8,3.87,6.86,7.27,12.2,10.2,5.33,2.94,12.06,5.6,20.2,8,8.13,2.4,17.53,4.94,28.2,7.6,13.86,3.74,26.46,7.74,37.8,12,11.33,4.27,20.93,9.6,28.8,16,7.86,6.4,13.93,14.07,18.2,23,4.26,8.94,6.4,19.94,6.4,33,0,15.2-2.87,28.2-8.6,39-5.74,10.8-13.47,19.54-23.2,26.2-9.74,6.67-20.94,11.54-33.6,14.6-12.67,3.06-25.94,4.6-39.8,4.6-21.34,0-42.4-3.2-63.2-9.6-20.8-6.4-39.47-15.46-56-27.2l24.4-47.6c2.4,2.4,6.73,5.54,13,9.4,6.26,3.87,13.66,7.74,22.2,11.6,8.53,3.87,18,7.14,28.4,9.8,10.4,2.67,21.06,4,32,4,30.4,0,45.6-9.73,45.6-29.2,0-6.13-1.74-11.33-5.2-15.6-3.47-4.26-8.4-8-14.8-11.2-6.4-3.2-14.14-6.13-23.2-8.8-9.07-2.66-19.2-5.6-30.4-8.8-13.6-3.73-25.4-7.8-35.4-12.2-10-4.4-18.34-9.6-25-15.6-6.67-6-11.67-12.93-15-20.8-3.34-7.86-5-17.26-5-28.2,0-14.4,2.66-27.2,8-38.4,5.33-11.2,12.73-20.53,22.2-28,9.46-7.46,20.46-13.13,33-17,12.53-3.86,26-5.8,40.4-5.8,20,0,38.4,3.14,55.2,9.4,16.8,6.27,31.46,13.67,44,22.2l-24.4,44.8Z" style="fill:#fff; stroke-width:0px;"/><path d="M456.46,181.3c-1.87-1.86-5.27-4.4-10.2-7.6-4.94-3.2-10.94-6.33-18-9.4-7.07-3.06-14.74-5.66-23-7.8-8.27-2.13-16.67-3.2-25.2-3.2-15.2,0-26.54,2.8-34,8.4-7.47,5.6-11.2,13.47-11.2,23.6,0,5.87,1.4,10.74,4.2,14.6,2.8,3.87,6.86,7.27,12.2,10.2,5.33,2.94,12.06,5.6,20.2,8,8.13,2.4,17.53,4.94,28.2,7.6,13.86,3.74,26.46,7.74,37.8,12,11.33,4.27,20.93,9.6,28.8,16,7.86,6.4,13.93,14.07,18.2,23,4.26,8.94,6.4,19.94,6.4,33,0,15.2-2.87,28.2-8.6,39-5.74,10.8-13.47,19.54-23.2,26.2-9.74,6.67-20.94,11.54-33.6,14.6-12.67,3.06-25.94,4.6-39.8,4.6-21.34,0-42.4-3.2-63.2-9.6-20.8-6.4-39.47-15.46-56-27.2l24.4-47.6c2.4,2.4,6.73,5.54,13,9.4,6.26,3.87,13.66,7.74,22.2,11.6,8.53,3.87,18,7.14,28.4,9.8,10.4,2.67,21.06,4,32,4,30.4,0,45.6-9.73,45.6-29.2,0-6.13-1.74-11.33-5.2-15.6-3.47-4.26-8.4-8-14.8-11.2s-14.14-6.13-23.2-8.8c-9.07-2.66-19.2-5.6-30.4-8.8-13.6-3.73-25.4-7.8-35.4-12.2-10-4.4-18.34-9.6-25-15.6-6.67-6-11.67-12.93-15-20.8-3.34-7.86-5-17.26-5-28.2,0-14.4,2.66-27.2,8-38.4,5.33-11.2,12.73-20.53,22.2-28,9.46-7.46,20.46-13.13,33-17,12.53-3.86,26-5.8,40.4-5.8,20,0,38.4,3.14,55.2,9.4,16.8,6.27,31.46,13.67,44,22.2l-24.4,44.8Z" style="fill:#fff; stroke-width:0px;"/></svg>
