<?xml version="1.0" encoding="UTF-8"?><svg id="Layer_1" xmlns="http://www.w3.org/2000/svg" viewBox="0 0 250 250"><path d="M117.76,131.58l-24.35,42.17c-2.99,5.19.75,11.67,6.74,11.67h48.69c5.99,0,9.73-6.48,6.74-11.67l-24.35-42.17c-2.99-5.19-10.48-5.19-13.47,0Z" style="fill:#666;"/><path d="M171.24,158.63l11.35-19.65c2.99-5.19-.75-11.67-6.74-11.67h-22.69c-5.99,0-9.73,6.48-6.74,11.67l11.35,19.65c2.99,5.19,10.48,5.19,13.47,0Z" style="fill:#22b573;"/><path d="M91.57,158.84l11.35-19.65c2.99-5.19-.75-11.67-6.74-11.67h-22.69c-5.99,0-9.73,6.48-6.74,11.67l11.35,19.65c2.99,5.19,10.48,5.19,13.47,0Z" style="fill:#22b573;"/><path d="M78.26,86.52l-11.35,19.65c-2.99,5.19.75,11.67,6.74,11.67h22.69c5.99,0,9.73-6.48,6.74-11.67l-11.35-19.65c-2.99-5.19-10.48-5.19-13.47,0Z" style="fill:#22b573;"/><path d="M157.93,86.31l-11.35,19.65c-2.99,5.19.75,11.67,6.74,11.67h22.69c5.99,0,9.73-6.48,6.74-11.67l-11.35-19.65c-2.99-5.19-10.48-5.19-13.47,0Z" style="fill:#22b573;"/><path d="M214.9,78.37h-22.69c-5.99,0-9.73,6.48-6.74,11.67l11.35,19.65c2.99,5.19,10.48,5.19,13.47,0l11.35-19.65c2.99-5.19-.75-11.67-6.74-11.67Z" style="fill:#22b573;"/><path d="M57.9,77.53h-22.69c-5.99,0-9.73,6.48-6.74,11.67l11.35,19.65c2.99,5.19,10.48,5.19,13.47,0l11.35-19.65c2.99-5.19-.75-11.67-6.74-11.67Z" style="fill:#22b573;"/><path d="M135.9,78.53h-22.69c-5.99,0-9.73,6.48-6.74,11.67l11.35,19.65c2.99,5.19,10.48,5.19,13.47,0l11.35-19.65c2.99-5.19-.75-11.67-6.74-11.67Z" style="fill:#22b573;"/></svg>